<svg width="204" height="24" viewBox="0 0 204 24" fill="none" xmlns="http://www.w3.org/2000/svg">
<path d="M12.121 8.84465C11.9381 9.17821 11.696 9.61937 11.3948 10.1681C11.1042 10.7169 10.7653 11.3302 10.3779 12.0081C10.0013 12.6859 9.58709 13.4176 9.13517 14.2031C8.69401 14.9778 8.23134 15.7579 7.74714 16.5434C7.27371 17.3288 6.78413 18.1036 6.27841 18.8675C5.78346 19.6207 5.29926 20.3201 4.82582 20.9657C5.98789 20.8473 7.10693 20.5514 8.18292 20.078C9.25891 19.6046 10.265 19.0182 11.2011 18.3188C12.1479 17.6086 13.0087 16.8178 13.7835 15.9462C14.5689 15.0639 15.236 14.1547 15.7848 13.2186C16.3443 12.2717 16.7747 11.3248 17.076 10.3779C17.388 9.43107 17.544 8.538 17.544 7.69872C17.544 6.98857 17.4526 6.33221 17.2697 5.72966C17.0975 5.1271 16.8285 4.60525 16.4627 4.16409C16.1076 3.72293 15.6503 3.37861 15.0908 3.13114C14.5313 2.88366 13.8749 2.75992 13.1217 2.75992C12.4223 2.75992 11.7176 2.82986 11.0074 2.96974C10.308 3.09886 9.63551 3.2764 8.98991 3.50235C8.34432 3.72831 7.74714 3.99731 7.19839 4.30935C6.66039 4.61063 6.19771 4.9388 5.81036 5.29388C5.37996 5.76732 4.99798 6.24075 4.66442 6.71419C4.34163 7.18763 4.01883 7.61264 3.69603 7.98924C3.38399 8.36584 3.04506 8.67249 2.67922 8.90921C2.31338 9.14593 1.88299 9.26429 1.38803 9.26429C0.462676 9.26429 0 8.85541 0 8.03766C0 7.52118 0.166779 6.96705 0.500336 6.37525C0.833894 5.7727 1.29657 5.1809 1.88837 4.59987C2.49092 4.00807 3.20108 3.44317 4.01883 2.90518C4.84734 2.35642 5.75656 1.87761 6.74647 1.46873C7.73638 1.04909 8.79085 0.715535 9.90989 0.468056C11.0289 0.220578 12.1802 0.0968393 13.3638 0.0968393C14.7411 0.0968393 15.9408 0.301278 16.963 0.710155C17.9852 1.11903 18.8299 1.68393 19.497 2.40484C20.1748 3.115 20.6752 3.95427 20.998 4.92266C21.3315 5.89106 21.4983 6.93477 21.4983 8.0538C21.4983 9.17283 21.3046 10.3457 20.9173 11.5723C20.5407 12.7989 19.9812 14.004 19.2387 15.1876C18.5071 16.3712 17.5978 17.4956 16.5111 18.5609C15.4351 19.6261 14.1923 20.5622 12.7828 21.3692C11.384 22.1762 9.82919 22.8164 8.11836 23.2898C6.41829 23.7633 4.57835 24 2.59852 24C2.16812 24 1.82919 23.8601 1.58171 23.5804C1.33423 23.3114 1.21049 22.9778 1.21049 22.5797C1.21049 22.2677 1.26429 21.9664 1.37189 21.6759C1.47949 21.3853 1.61937 21.1163 1.79153 20.8689L8.42502 7.68258C8.73705 7.19839 9.04371 6.81103 9.34499 6.52051C9.65703 6.22999 9.94217 6.00403 10.2004 5.84264C10.4694 5.68124 10.7061 5.57902 10.9106 5.53598C11.115 5.48218 11.271 5.45528 11.3786 5.45528C11.8628 5.45528 12.2071 5.59516 12.4116 5.87492C12.616 6.15467 12.7182 6.48823 12.7182 6.87559C12.7182 7.18763 12.6644 7.5158 12.5568 7.86012C12.4492 8.20444 12.304 8.53262 12.121 8.84465Z" fill="#222125"/>
<path d="M24.6301 9.42569C24.6301 9.17821 24.6731 8.92535 24.7592 8.66711C24.8561 8.39812 24.9959 8.15602 25.1789 7.94082C25.3618 7.72562 25.5877 7.54808 25.8567 7.4082C26.1365 7.26833 26.4647 7.19839 26.8413 7.19839C27.4653 7.19839 27.9011 7.32212 28.1486 7.5696C28.3961 7.80632 28.5198 8.1076 28.5198 8.47344C28.5198 8.67787 28.4768 8.90383 28.3907 9.15131C28.3154 9.39879 28.197 9.63013 28.0356 9.84533C27.8742 10.0498 27.6644 10.2219 27.4062 10.3618C27.1479 10.5017 26.8413 10.5716 26.4862 10.5716C25.8191 10.5716 25.351 10.4694 25.082 10.265C24.813 10.0498 24.6624 9.77001 24.6301 9.42569ZM22.8547 13.0572C23.0376 12.7559 23.2475 12.5407 23.4842 12.4116C23.7209 12.2824 23.963 12.2179 24.2105 12.2179C24.6193 12.2179 24.969 12.3524 25.2596 12.6214C25.5608 12.8796 25.7115 13.2132 25.7115 13.6221C25.7007 13.7189 25.6846 13.8157 25.6631 13.9126C25.6523 14.0094 25.62 14.1063 25.5662 14.2031C25.4156 14.4829 25.2918 14.7196 25.195 14.9132C25.0982 15.1069 25.0067 15.2898 24.9206 15.462C24.8453 15.6234 24.77 15.7848 24.6947 15.9462C24.6193 16.1076 24.5279 16.3013 24.4203 16.5272C24.2912 16.7962 24.1459 17.0921 23.9845 17.4149C23.8231 17.727 23.6671 18.0498 23.5164 18.3833C23.3766 18.7169 23.2528 19.0451 23.1452 19.3679C23.0484 19.6907 23 19.9865 23 20.2555C23 20.5461 23.0699 20.7397 23.2098 20.8366C23.3604 20.9227 23.5702 20.9657 23.8392 20.9657C24.1405 20.9657 24.4526 20.9011 24.7754 20.772C25.1089 20.6429 25.4425 20.4761 25.776 20.2717C26.1096 20.0672 26.4378 19.8359 26.7606 19.5777C27.0834 19.3087 27.3846 19.0397 27.6644 18.7707C27.9549 18.5017 28.2185 18.2434 28.4553 17.996C28.7027 17.7485 28.9072 17.5279 29.0686 17.3342C29.2838 17.1298 29.499 17.0276 29.7142 17.0276C29.9078 17.0276 30.0639 17.1137 30.1822 17.2858C30.3113 17.458 30.3759 17.6785 30.3759 17.9475C30.3759 18.195 30.3113 18.4586 30.1822 18.7384C30.0639 19.0182 29.8648 19.2818 29.585 19.5293C29.0363 20.0888 28.4768 20.6268 27.9065 21.1432C27.3362 21.649 26.7498 22.1009 26.1472 22.499C25.5555 22.8863 24.9583 23.1984 24.3557 23.4351C23.7532 23.6718 23.1452 23.7902 22.5319 23.7902C21.6604 23.7902 20.9717 23.5696 20.466 23.1284C19.9711 22.6765 19.7236 21.9771 19.7236 21.0303C19.7236 20.5353 19.7935 20.0511 19.9334 19.5777C20.0733 19.1042 20.2401 18.6469 20.4337 18.2058C20.6274 17.7539 20.8318 17.3235 21.047 16.9146C21.2622 16.495 21.4452 16.0968 21.5958 15.7202C21.6496 15.5804 21.7411 15.3652 21.8702 15.0746C22.0101 14.7841 22.1553 14.4882 22.306 14.187C22.4781 13.8319 22.661 13.4553 22.8547 13.0572Z" fill="#222125"/>
<path d="M41.7874 19.7714C40.9804 20.3847 40.1734 20.8689 39.3665 21.2239C38.5595 21.5683 37.6664 21.7404 36.6872 21.7404C36.3644 21.7404 36.0524 21.6812 35.7511 21.5629C35.4498 21.4445 35.0571 21.2347 34.5729 20.9334C33.8628 21.8695 33.1472 22.5797 32.4263 23.0639C31.7162 23.5481 30.9737 23.7902 30.199 23.7902C29.8224 23.7902 29.4619 23.7202 29.1176 23.5804C28.7733 23.4512 28.472 23.2522 28.2138 22.9832C27.9556 22.7142 27.7457 22.3806 27.5843 21.9825C27.4337 21.5844 27.3584 21.1217 27.3584 20.5945C27.3584 19.9489 27.4283 19.2549 27.5682 18.5124C27.7188 17.7592 27.8964 17.0276 28.1008 16.3174C28.3053 15.6073 28.5043 14.9509 28.698 14.3484C28.9024 13.7458 29.0638 13.267 29.1822 12.9119C29.3974 12.46 29.6664 12.1372 29.9892 11.9435C30.3227 11.7391 30.6455 11.6369 30.9576 11.6369C31.0975 11.6369 31.2373 11.6638 31.3772 11.7176C31.5279 11.7606 31.6624 11.8252 31.7807 11.9112C31.8991 11.9973 31.9959 12.0995 32.0712 12.2179C32.1465 12.3362 32.1842 12.4654 32.1842 12.6052C32.1842 12.7236 32.1627 12.8258 32.1196 12.9119C31.9582 13.4284 31.7646 13.9933 31.5386 14.6066C31.3234 15.2091 31.119 15.8171 30.9253 16.4304C30.7316 17.0437 30.5648 17.6463 30.425 18.2381C30.2958 18.8191 30.2313 19.3517 30.2313 19.8359C30.2313 19.9112 30.242 20.0134 30.2636 20.1426C30.2851 20.2609 30.312 20.3793 30.3443 20.4976C30.3765 20.6052 30.4196 20.7021 30.4734 20.7882C30.5272 20.8635 30.5864 20.9011 30.6509 20.9011C30.9307 20.9011 31.2427 20.7451 31.587 20.4331C31.9314 20.121 32.3079 19.6907 32.7168 19.1419C33.0719 18.7653 33.4055 18.3241 33.7175 17.8184C34.0403 17.3019 34.3416 16.7747 34.6213 16.2367C34.9118 15.6987 35.1862 15.1715 35.4445 14.655C35.7135 14.1278 35.9717 13.6597 36.2192 13.2508C36.4774 12.8312 36.7303 12.4976 36.9777 12.2502C37.2252 11.9919 37.4781 11.8628 37.7363 11.8628C38.1775 11.8628 38.4895 12.0081 38.6724 12.2986C38.8554 12.5783 38.9468 12.9173 38.9468 13.3154C38.9468 13.7673 38.8715 14.1816 38.7209 14.5582C38.581 14.9348 38.3873 15.3275 38.1398 15.7364C37.8923 16.1345 37.5964 16.581 37.2521 17.076C36.9186 17.5602 36.5527 18.1412 36.1546 18.8191C36.3268 19.0451 36.5958 19.158 36.9616 19.158C37.349 19.158 37.7471 19.1096 38.156 19.0128C38.5756 18.9159 38.9899 18.7814 39.3987 18.6093C39.8076 18.4264 40.2111 18.2112 40.6092 17.9637C41.0181 17.7054 41.4108 17.4257 41.7874 17.1244C41.9488 17.0276 42.0995 16.9792 42.2394 16.9792C42.433 16.9792 42.589 17.0652 42.7074 17.2374C42.8365 17.4095 42.9011 17.6301 42.9011 17.8991C42.9011 18.1896 42.815 18.5071 42.6428 18.8514C42.4707 19.1849 42.1856 19.4916 41.7874 19.7714Z" fill="#222125"/>
<path d="M46.743 13.8642C46.6892 13.8534 46.6408 13.848 46.5978 13.848C46.5547 13.848 46.5063 13.848 46.4525 13.848C46.0436 13.848 45.6617 13.9287 45.3066 14.0901C44.9515 14.2515 44.6233 14.4667 44.322 14.7357C44.0315 14.9939 43.7679 15.2898 43.5312 15.6234C43.3052 15.957 43.1008 16.2905 42.9179 16.6241C42.735 16.9469 42.5789 17.2589 42.4498 17.5602C42.3315 17.8615 42.24 18.1143 42.1754 18.3188C42.552 18.1251 42.9394 17.9045 43.3375 17.657C43.7464 17.4095 44.1284 17.1728 44.4834 16.9469C44.8385 16.7209 45.1452 16.5165 45.4034 16.3336C45.6724 16.1506 45.8607 16.0269 45.9683 15.9623C46.4525 15.6611 46.7861 15.3813 46.969 15.1231C47.1519 14.8541 47.2434 14.6227 47.2434 14.4291C47.2434 14.2677 47.1896 14.1385 47.082 14.0417C46.9851 13.9449 46.8721 13.8857 46.743 13.8642ZM47.3241 11.6369C48.2171 11.6369 48.8842 11.8521 49.3254 12.2824C49.7666 12.7128 49.9871 13.31 49.9871 14.074C49.9871 14.5259 49.8688 14.9993 49.6321 15.4943C49.3953 15.9892 48.9865 16.495 48.4054 17.0114C47.8244 17.5171 47.0443 18.039 46.0652 18.577C45.0968 19.1042 43.8809 19.6369 42.4175 20.1748C42.4713 20.4869 42.6381 20.7344 42.9179 20.9173C43.1976 21.0894 43.5688 21.1755 44.0315 21.1755C44.5265 21.1755 45.0537 21.1056 45.6132 20.9657C46.1835 20.8151 46.743 20.6268 47.2918 20.4008C47.8513 20.1748 48.3947 19.9328 48.9219 19.6745C49.4491 19.4055 49.9226 19.1527 50.3422 18.9159C50.7726 18.6792 51.1277 18.4748 51.4074 18.3026C51.698 18.1305 51.8916 18.0229 51.9885 17.9798C52.0853 17.9153 52.1714 17.8776 52.2467 17.8668C52.3328 17.8561 52.4081 17.8507 52.4727 17.8507C52.6018 17.8507 52.7094 17.883 52.7955 17.9475C52.8816 18.0013 52.9515 18.0713 53.0053 18.1574C53.0699 18.2327 53.1129 18.3188 53.1344 18.4156C53.1559 18.5017 53.1667 18.577 53.1667 18.6416C53.1667 18.7384 53.1559 18.8568 53.1344 18.9966C53.1129 19.1258 53.0322 19.2764 52.8923 19.4486C52.8385 19.5024 52.6556 19.6476 52.3436 19.8843C52.0423 20.121 51.6495 20.4008 51.1654 20.7236C50.6812 21.0464 50.1163 21.3907 49.4707 21.7566C48.8358 22.1116 48.158 22.4398 47.437 22.7411C46.7269 23.0424 45.9845 23.2898 45.2097 23.4835C44.435 23.688 43.6711 23.7902 42.9179 23.7902C42.2723 23.7902 41.6966 23.6664 41.1909 23.419C40.696 23.1715 40.2709 22.8379 39.9159 22.4183C39.5715 21.9987 39.3079 21.5145 39.125 20.9657C38.9421 20.4169 38.8506 19.8413 38.8506 19.2387C38.8506 18.7761 38.9421 18.2703 39.125 17.7216C39.3079 17.1621 39.5715 16.6026 39.9159 16.043C40.2602 15.4835 40.6798 14.9401 41.1748 14.4129C41.6805 13.8749 42.2454 13.4015 42.8695 12.9926C43.4935 12.5837 44.1768 12.2555 44.9192 12.0081C45.6724 11.7606 46.474 11.6369 47.3241 11.6369Z" fill="#222125"/>
<path d="M56.4115 13.9771C56.8311 13.7189 57.2615 13.4822 57.7026 13.267C58.1546 13.0518 58.5903 12.8689 59.01 12.7182C59.4296 12.5568 59.8277 12.4331 60.2043 12.347C60.5917 12.2502 60.936 12.2017 61.2373 12.2017C61.7215 12.2017 62.0927 12.3201 62.3509 12.5568C62.6199 12.7828 62.7544 13.1701 62.7544 13.7189C62.7544 13.8373 62.749 13.9664 62.7383 14.1063C62.7275 14.2354 62.706 14.3753 62.6737 14.5259C62.6199 14.8056 62.4585 15.1338 62.1895 15.5104C61.9205 15.887 61.6031 16.2798 61.2373 16.6886C60.8822 17.0975 60.4948 17.5118 60.0752 17.9314C59.6663 18.3403 59.2844 18.7223 58.9293 19.0773C58.585 19.4217 58.2944 19.7229 58.0577 19.9812C57.8318 20.2394 57.7188 20.4169 57.7188 20.5138C57.7188 20.5999 57.7242 20.659 57.7349 20.6913C57.7457 20.7236 57.7941 20.7397 57.8802 20.7397C58.4612 20.4923 59.1068 20.1964 59.817 19.8521C60.5379 19.497 61.2534 19.1365 61.9636 18.7707C62.6737 18.4048 63.3462 18.0498 63.9811 17.7054C64.6159 17.3504 65.1539 17.0437 65.595 16.7855C65.6919 16.7317 65.7887 16.6886 65.8856 16.6564C65.9932 16.6133 66.09 16.5918 66.1761 16.5918C66.3698 16.5918 66.5312 16.6564 66.6603 16.7855C66.7894 16.9146 66.854 17.0868 66.854 17.3019C66.854 17.5494 66.7464 17.8346 66.5312 18.1574C66.3267 18.4694 65.977 18.7976 65.4821 19.1419C65.1055 19.3786 64.6805 19.6476 64.207 19.9489C63.7443 20.2394 63.2548 20.5461 62.7383 20.8689C62.2326 21.1809 61.7161 21.4876 61.1889 21.7888C60.6724 22.0901 60.172 22.3591 59.6879 22.5958C59.2037 22.8325 58.7464 23.0262 58.316 23.1769C57.8963 23.3167 57.5305 23.3867 57.2185 23.3867C56.476 23.3867 55.9165 23.2091 55.5399 22.8541C55.1741 22.499 54.9911 22.0417 54.9911 21.4822C54.9911 21.3961 54.9965 21.3315 55.0073 21.2885C55.0826 20.8151 55.2225 20.3578 55.4269 19.9166C55.6314 19.4755 55.8627 19.0558 56.1209 18.6577C56.3792 18.2596 56.6482 17.883 56.9279 17.5279C57.2077 17.1621 57.4605 16.8231 57.6865 16.5111C57.9232 16.1883 58.1169 15.8924 58.2675 15.6234C58.4182 15.3544 58.4935 15.1069 58.4935 14.881C58.4935 14.8272 58.4827 14.7734 58.4612 14.7196C58.4397 14.6658 58.3913 14.6389 58.316 14.6389C58.1868 14.6389 57.9716 14.6873 57.6704 14.7841C57.3798 14.881 57.0678 15.0101 56.7343 15.1715C56.4007 15.3329 56.0833 15.5212 55.782 15.7364C55.4807 15.9408 55.2655 16.1614 55.1364 16.3981C54.9642 16.6994 54.7652 17.0814 54.5392 17.544C54.3133 18.0067 54.0766 18.4909 53.8291 18.9966C53.5924 19.5024 53.361 20.0027 53.1351 20.4976C52.9091 20.9926 52.7154 21.4176 52.554 21.7727C52.4249 22.0847 52.2527 22.3645 52.0375 22.612C51.8331 22.8594 51.6072 23.0693 51.3597 23.2414C51.1122 23.4136 50.8593 23.5481 50.6011 23.6449C50.3429 23.7418 50.1061 23.7902 49.8909 23.7902C49.6435 23.7902 49.4444 23.7256 49.2938 23.5965C49.1539 23.4674 49.084 23.2576 49.084 22.967C49.084 22.8487 49.1001 22.7034 49.1324 22.5313C49.1754 22.3484 49.2561 22.1493 49.3745 21.9341C49.5681 21.5683 49.7618 21.1701 49.9555 20.7397C50.1599 20.3093 50.3913 19.8198 50.6495 19.271C50.9078 18.7115 51.2037 18.0767 51.5372 17.3665C51.8815 16.6456 52.285 15.8171 52.7477 14.881C52.5971 14.7518 52.4679 14.5958 52.3603 14.4129C52.2635 14.2192 52.2151 13.9825 52.2151 13.7028C52.2151 13.4445 52.2689 13.2239 52.3765 13.041C52.4841 12.8473 52.6293 12.6913 52.8123 12.573C52.9952 12.4546 53.205 12.3685 53.4417 12.3147C53.6892 12.2502 53.9474 12.2179 54.2164 12.2179C54.4962 12.2179 54.7759 12.2448 55.0557 12.2986C55.3355 12.3416 55.5829 12.4116 55.7981 12.5084C56.0241 12.6052 56.207 12.7236 56.3469 12.8635C56.4868 13.0034 56.5567 13.1648 56.5567 13.3477C56.5567 13.38 56.546 13.423 56.5244 13.4768C56.5029 13.5306 56.476 13.5898 56.4437 13.6543C56.4222 13.7189 56.4007 13.7781 56.3792 13.8319C56.3577 13.8857 56.3469 13.9287 56.3469 13.961C56.3469 13.9825 56.3523 13.9933 56.363 13.9933H56.3792L56.4115 13.9771Z" fill="#222125"/>
<path d="M74.8923 1.30733C74.4511 1.94217 74.0261 2.5501 73.6172 3.13114C73.2191 3.70141 72.8156 4.27169 72.4067 4.84196C72.0086 5.40148 71.6051 5.97176 71.1962 6.55279C70.7874 7.13383 70.3677 7.73638 69.9373 8.36046C69.7652 8.60794 69.5876 8.78547 69.4047 8.89307C69.2218 9.00067 69.0442 9.05447 68.8721 9.05447C68.6999 9.05447 68.5601 9.01143 68.4525 8.92535C68.3449 8.83927 68.2911 8.72629 68.2911 8.58642C68.2911 8.52186 68.3072 8.44654 68.3395 8.36046C68.5762 7.73638 68.7968 7.13383 69.0012 6.55279C69.2164 5.97176 69.4262 5.40148 69.6307 4.84196C69.8351 4.27169 70.0395 3.70141 70.244 3.13114C70.4592 2.5501 70.6851 1.94217 70.9219 1.30733C70.9972 1.08137 71.1209 0.887693 71.2931 0.726295C71.4652 0.554136 71.6643 0.419637 71.8902 0.322798C72.1162 0.215198 72.3583 0.134499 72.6165 0.0806994C72.8748 0.0268998 73.1276 0 73.3751 0C73.6011 0 73.8109 0.0215198 74.0046 0.0645595C74.209 0.0968393 74.3866 0.150639 74.5372 0.225958C74.6878 0.301278 74.8062 0.392737 74.8923 0.500336C74.9891 0.607935 75.0375 0.731674 75.0375 0.871553C75.0375 1.00067 74.9891 1.14593 74.8923 1.30733Z" fill="#222125"/>
<path d="M77.5883 14.2999C78.2446 14.6442 78.831 15.037 79.3475 15.4781C79.864 15.9193 80.2998 16.3874 80.6548 16.8823C81.0207 17.3665 81.2951 17.8615 81.478 18.3672C81.6717 18.8729 81.7685 19.3679 81.7685 19.8521C81.7685 20.4654 81.591 21.0195 81.2359 21.5145C80.8916 21.9987 80.4343 22.4129 79.864 22.7572C79.3045 23.0908 78.6589 23.3436 77.9272 23.5158C77.2063 23.6987 76.4746 23.7902 75.7322 23.7902C75.1727 23.7902 74.6293 23.7256 74.1021 23.5965C73.5748 23.4781 73.0906 23.2898 72.6495 23.0316C72.2191 22.7734 71.8479 22.4452 71.5358 22.0471C71.2238 21.6382 71.0032 21.154 70.8741 20.5945C70.8526 20.5084 70.8418 20.4385 70.8418 20.3847C70.8418 20.0941 70.944 19.8467 71.1485 19.6422C71.3529 19.427 71.5789 19.3194 71.8263 19.3194C71.9447 19.3194 72.0738 19.341 72.2137 19.384C72.3643 19.427 72.4773 19.5239 72.5526 19.6745C72.6925 19.9328 72.8862 20.1641 73.1337 20.3685C73.3919 20.573 73.677 20.7505 73.9891 20.9011C74.3011 21.041 74.6293 21.154 74.9736 21.2401C75.3287 21.3154 75.673 21.3531 76.0066 21.3531C76.3509 21.3531 76.6791 21.3208 76.9911 21.2562C77.3139 21.1917 77.5936 21.0894 77.8304 20.9496C78.0778 20.8097 78.2715 20.6321 78.4114 20.4169C78.5513 20.2017 78.6212 19.9381 78.6212 19.6261C78.6212 19.0773 78.4975 18.5716 78.25 18.1089C78.0025 17.6463 77.6797 17.2213 77.2816 16.8339C76.8943 16.4358 76.4477 16.0699 75.942 15.7364C75.447 15.3921 74.9521 15.0639 74.4571 14.7518C74.4033 14.7196 74.3226 14.6281 74.215 14.4775C74.1074 14.3161 74.0536 14.1547 74.0536 13.9933C74.0536 13.8642 74.0859 13.7619 74.1505 13.6866C74.3226 13.4607 74.5217 13.2293 74.7477 12.9926C74.9736 12.7559 75.2157 12.5407 75.4739 12.347C75.7322 12.1426 76.0119 11.9812 76.3132 11.8628C76.6145 11.7337 76.9265 11.6691 77.2493 11.6691C77.4861 11.6691 77.7066 11.7014 77.9111 11.766C78.1155 11.8305 78.2877 11.9166 78.4275 12.0242C78.5674 12.121 78.675 12.234 78.7503 12.3631C78.8364 12.4815 78.8795 12.5945 78.8795 12.7021C78.8795 12.8527 78.8418 12.998 78.7665 13.1379C78.6912 13.2777 78.5889 13.4122 78.4598 13.5414C78.3415 13.6705 78.2016 13.7996 78.0402 13.9287C77.8895 14.0578 77.7389 14.1816 77.5883 14.2999Z" fill="#222125"/>
<path d="M109.579 3.00202C109.579 3.29254 109.53 3.64223 109.434 4.05111C109.347 4.45999 109.218 4.885 109.046 5.32616C108.874 5.76732 108.664 6.20847 108.417 6.64963C108.18 7.08003 107.906 7.47276 107.594 7.82784C107.282 8.17216 106.943 8.45192 106.577 8.66711C106.211 8.88231 105.818 8.98991 105.399 8.98991C105.302 8.98991 105.173 8.98453 105.011 8.97377C104.861 8.95225 104.705 8.91459 104.543 8.86079C104.393 8.79623 104.258 8.70477 104.14 8.58642C104.032 8.46806 103.978 8.31204 103.978 8.11836C103.978 7.98924 104.011 7.8386 104.075 7.66644C104.15 7.49428 104.28 7.29523 104.462 7.06927C104.656 6.85407 104.866 6.60121 105.092 6.31069C105.318 6.00941 105.522 5.69738 105.705 5.37458C105.888 5.05178 106.039 4.73436 106.157 4.42233C106.286 4.11029 106.351 3.83053 106.351 3.58305C106.351 3.27102 106.276 3.02354 106.125 2.84062C105.985 2.64694 105.738 2.5501 105.382 2.5501C104.92 2.5501 104.398 2.70074 103.817 3.00202C103.236 3.3033 102.628 3.71755 101.993 4.24479C101.358 4.77202 100.713 5.39072 100.056 6.10087C99.3999 6.80027 98.7651 7.55346 98.1518 8.36046C97.5384 9.15669 96.9574 9.99058 96.4087 10.8621C95.8707 11.7229 95.3972 12.5783 94.9883 13.4284C94.5902 14.2677 94.2728 15.08 94.0361 15.8655C93.8101 16.6402 93.6972 17.345 93.6972 17.9798C93.6972 18.7653 93.907 19.3948 94.3266 19.8682C94.7462 20.3416 95.4403 20.5783 96.4087 20.5783C96.8606 20.5783 97.5331 20.4062 98.4261 20.0619C99.3192 19.7068 100.062 19.3571 100.653 19.0128C101.256 18.6577 101.859 18.2703 102.461 17.8507C103.074 17.4203 103.655 17.0114 104.204 16.6241C104.753 16.226 105.253 15.8709 105.705 15.5588C106.157 15.236 106.528 15.0101 106.819 14.881C106.873 14.8379 106.937 14.8164 107.013 14.8164C107.174 14.8164 107.282 14.9509 107.335 15.2199C107.4 15.4781 107.432 15.774 107.432 16.1076C107.432 16.2905 107.405 16.5165 107.351 16.7855C107.308 17.0437 107.158 17.345 106.9 17.6893C106.781 17.8292 106.561 18.0659 106.238 18.3995C105.915 18.733 105.512 19.1096 105.027 19.5293C104.543 19.9489 103.989 20.3847 103.365 20.8366C102.741 21.2885 102.063 21.7028 101.331 22.0794C100.61 22.456 99.6743 22.8272 98.523 23.193C97.3824 23.5588 96.3871 23.7418 95.5371 23.7418C94.5364 23.7418 93.681 23.6234 92.9709 23.3867C92.2607 23.1392 91.6797 22.8003 91.2278 22.3699C90.7758 21.9395 90.4423 21.4284 90.2271 20.8366C90.0226 20.234 89.9204 19.5777 89.9204 18.8675C89.9204 17.9852 90.0549 17.0383 90.3239 16.0269C90.5929 15.0155 90.9641 13.9879 91.4376 12.9442C91.9218 11.9005 92.492 10.8568 93.1484 9.81305C93.8155 8.76933 94.5418 7.77404 95.3273 6.82717C96.1235 5.86954 96.9682 4.98184 97.8612 4.16409C98.7543 3.34633 99.6689 2.63618 100.605 2.03362C101.541 1.43107 102.483 0.957633 103.43 0.613315C104.376 0.268998 105.307 0.0968393 106.222 0.0968393C106.674 0.0968393 107.104 0.150639 107.513 0.258238C107.922 0.355077 108.277 0.516476 108.578 0.742434C108.89 0.968393 109.132 1.26967 109.304 1.64627C109.487 2.0121 109.579 2.46402 109.579 3.00202Z" fill="#222125"/>
<path d="M111.565 14.4936C111.059 14.4936 110.569 14.6227 110.096 14.881C109.633 15.1284 109.219 15.462 108.853 15.8816C108.498 16.2905 108.213 16.7586 107.998 17.2858C107.783 17.8023 107.675 18.3349 107.675 18.8837C107.675 19.0881 107.691 19.3141 107.723 19.5615C107.756 19.7983 107.82 20.0242 107.917 20.2394C108.025 20.4438 108.175 20.616 108.369 20.7559C108.563 20.8958 108.821 20.9657 109.144 20.9657C109.639 20.9657 110.117 20.8366 110.58 20.5783C111.054 20.3093 111.473 19.965 111.839 19.5454C112.205 19.115 112.495 18.6308 112.711 18.0928C112.926 17.5548 113.033 17.0114 113.033 16.4627C113.033 16.2475 113.017 16.0269 112.985 15.8009C112.963 15.5642 112.899 15.349 112.791 15.1553C112.694 14.9617 112.549 14.8056 112.356 14.6873C112.162 14.5582 111.898 14.4936 111.565 14.4936ZM112.404 11.653C112.813 11.653 113.249 11.7068 113.711 11.8144C114.185 11.922 114.62 12.1049 115.019 12.3631C115.417 12.6214 115.745 12.9657 116.003 13.3961C116.272 13.8157 116.407 14.3376 116.407 14.9617C116.407 15.2845 116.364 15.6557 116.277 16.0753C116.191 16.4842 116.062 16.9146 115.89 17.3665C115.998 17.4956 116.121 17.5871 116.261 17.6409C116.401 17.6947 116.552 17.7216 116.713 17.7216C116.939 17.7216 117.187 17.657 117.456 17.5279C117.735 17.3988 118.021 17.232 118.311 17.0276C118.602 16.8231 118.892 16.5918 119.183 16.3336C119.473 16.0753 119.748 15.8171 120.006 15.5588C120.264 15.3006 120.495 15.0585 120.7 14.8325C120.915 14.5958 121.093 14.3968 121.232 14.2354C121.308 14.1601 121.399 14.1224 121.507 14.1224C121.657 14.1224 121.792 14.2031 121.91 14.3645C122.029 14.5151 122.088 14.7303 122.088 15.0101C122.088 15.2898 122.002 15.6126 121.83 15.9785C121.668 16.3443 121.362 16.7263 120.91 17.1244C120.651 17.4042 120.356 17.727 120.022 18.0928C119.688 18.4586 119.333 18.803 118.957 19.1258C118.58 19.4486 118.187 19.7229 117.779 19.9489C117.37 20.1748 116.961 20.2878 116.552 20.2878C116.272 20.2878 115.998 20.2448 115.729 20.1587C115.471 20.0726 115.207 19.9328 114.938 19.7391C114.551 20.3416 114.109 20.8904 113.614 21.3853C113.119 21.8803 112.565 22.3053 111.952 22.6604C111.349 23.0155 110.693 23.2898 109.983 23.4835C109.284 23.688 108.536 23.7902 107.739 23.7902C107.438 23.7902 107.089 23.731 106.69 23.6126C106.292 23.4943 105.91 23.3006 105.544 23.0316C105.189 22.7518 104.888 22.3914 104.641 21.9502C104.393 21.5091 104.269 20.9711 104.269 20.3362C104.269 19.9059 104.339 19.3894 104.479 18.7868C104.619 18.1843 104.829 17.5656 105.109 16.9307C105.399 16.2851 105.76 15.6503 106.19 15.0262C106.631 14.3914 107.153 13.8265 107.756 13.3315C108.358 12.8258 109.047 12.4223 109.822 12.121C110.596 11.809 111.457 11.653 112.404 11.653Z" fill="#222125"/>
<path d="M121.12 18.7223C121.002 18.9697 120.883 19.2603 120.765 19.5938C120.657 19.9166 120.604 20.2071 120.604 20.4654C120.604 20.6268 120.636 20.7559 120.7 20.8527C120.765 20.9496 120.889 20.998 121.072 20.998C121.298 20.998 121.577 20.9334 121.911 20.8043C122.255 20.6644 122.621 20.4869 123.008 20.2717C123.407 20.0457 123.815 19.7929 124.235 19.5131C124.666 19.2226 125.091 18.9267 125.51 18.6254C125.93 18.3134 126.328 18.0067 126.705 17.7054C127.092 17.3934 127.436 17.1083 127.737 16.85C127.824 16.7747 127.926 16.7209 128.044 16.6886C128.162 16.6564 128.265 16.6402 128.351 16.6402C128.566 16.6402 128.744 16.7155 128.883 16.8662C129.023 17.0168 129.093 17.2159 129.093 17.4633C129.093 17.6893 129.018 17.9422 128.867 18.2219C128.717 18.5017 128.453 18.7761 128.076 19.0451C127.388 19.6799 126.694 20.2824 125.994 20.8527C125.295 21.423 124.596 21.9287 123.896 22.3699C123.208 22.8003 122.519 23.1446 121.83 23.4028C121.152 23.6611 120.491 23.7902 119.845 23.7902C119.404 23.7902 119.033 23.731 118.731 23.6126C118.441 23.4943 118.204 23.3329 118.021 23.1284C117.849 22.924 117.725 22.6819 117.65 22.4022C117.575 22.1224 117.537 21.8265 117.537 21.5145C117.537 20.9872 117.612 20.4492 117.763 19.9005C117.924 19.341 118.113 18.8299 118.328 18.3672C118.705 17.5279 119.086 16.694 119.474 15.8655C119.861 15.037 120.216 14.2784 120.539 13.5898L125.429 3.17956C125.623 2.75992 125.881 2.46402 126.204 2.29186C126.538 2.1197 126.871 2.03362 127.205 2.03362C127.538 2.03362 127.84 2.12508 128.109 2.308C128.388 2.49092 128.528 2.78682 128.528 3.1957C128.528 3.38937 128.48 3.59381 128.383 3.80901C128.297 4.02421 128.184 4.25555 128.044 4.50303C127.775 5.00874 127.452 5.62744 127.076 6.35911C126.71 7.09079 126.312 7.88702 125.881 8.74781C125.462 9.60861 125.026 10.5071 124.574 11.4432C124.133 12.3685 123.697 13.2724 123.267 14.1547C122.847 15.037 122.449 15.8763 122.072 16.6725C121.707 17.458 121.389 18.1412 121.12 18.7223Z" fill="#222125"/>
<path d="M128.981 18.7223C128.863 18.9697 128.744 19.2603 128.626 19.5938C128.518 19.9166 128.464 20.2071 128.464 20.4654C128.464 20.6268 128.497 20.7559 128.561 20.8527C128.626 20.9496 128.75 20.998 128.932 20.998C129.158 20.998 129.438 20.9334 129.772 20.8043C130.116 20.6644 130.482 20.4869 130.869 20.2717C131.267 20.0457 131.676 19.7929 132.096 19.5131C132.526 19.2226 132.951 18.9267 133.371 18.6254C133.791 18.3134 134.189 18.0067 134.565 17.7054C134.953 17.3934 135.297 17.1083 135.598 16.85C135.684 16.7747 135.787 16.7209 135.905 16.6886C136.023 16.6564 136.125 16.6402 136.212 16.6402C136.427 16.6402 136.604 16.7155 136.744 16.8662C136.884 17.0168 136.954 17.2159 136.954 17.4633C136.954 17.6893 136.879 17.9422 136.728 18.2219C136.577 18.5017 136.314 18.7761 135.937 19.0451C135.249 19.6799 134.555 20.2824 133.855 20.8527C133.156 21.423 132.456 21.9287 131.757 22.3699C131.068 22.8003 130.38 23.1446 129.691 23.4028C129.013 23.6611 128.351 23.7902 127.706 23.7902C127.265 23.7902 126.893 23.731 126.592 23.6126C126.302 23.4943 126.065 23.3329 125.882 23.1284C125.71 22.924 125.586 22.6819 125.511 22.4022C125.435 22.1224 125.398 21.8265 125.398 21.5145C125.398 20.9872 125.473 20.4492 125.624 19.9005C125.785 19.341 125.973 18.8299 126.189 18.3672C126.565 17.5279 126.947 16.694 127.335 15.8655C127.722 15.037 128.077 14.2784 128.4 13.5898L133.29 3.17956C133.484 2.75992 133.742 2.46402 134.065 2.29186C134.398 2.1197 134.732 2.03362 135.066 2.03362C135.399 2.03362 135.7 2.12508 135.969 2.308C136.249 2.49092 136.389 2.78682 136.389 3.1957C136.389 3.38937 136.341 3.59381 136.244 3.80901C136.158 4.02421 136.045 4.25555 135.905 4.50303C135.636 5.00874 135.313 5.62744 134.936 6.35911C134.571 7.09079 134.173 7.88702 133.742 8.74781C133.322 9.60861 132.887 10.5071 132.435 11.4432C131.994 12.3685 131.558 13.2724 131.127 14.1547C130.708 15.037 130.31 15.8763 129.933 16.6725C129.567 17.458 129.25 18.1412 128.981 18.7223Z" fill="#222125"/>
<path d="M140.796 13.8642C140.742 13.8534 140.694 13.848 140.651 13.848C140.608 13.848 140.559 13.848 140.505 13.848C140.097 13.848 139.715 13.9287 139.359 14.0901C139.004 14.2515 138.676 14.4667 138.375 14.7357C138.084 14.9939 137.821 15.2898 137.584 15.6234C137.358 15.957 137.154 16.2905 136.971 16.6241C136.788 16.9469 136.632 17.2589 136.503 17.5602C136.384 17.8615 136.293 18.1143 136.228 18.3188C136.605 18.1251 136.992 17.9045 137.39 17.657C137.799 17.4095 138.181 17.1728 138.536 16.9469C138.891 16.7209 139.198 16.5165 139.456 16.3336C139.725 16.1506 139.914 16.0269 140.021 15.9623C140.505 15.6611 140.839 15.3813 141.022 15.1231C141.205 14.8541 141.296 14.6227 141.296 14.4291C141.296 14.2677 141.242 14.1385 141.135 14.0417C141.038 13.9449 140.925 13.8857 140.796 13.8642ZM141.377 11.6369C142.27 11.6369 142.937 11.8521 143.378 12.2824C143.819 12.7128 144.04 13.31 144.04 14.074C144.04 14.5259 143.922 14.9993 143.685 15.4943C143.448 15.9892 143.039 16.495 142.458 17.0114C141.877 17.5171 141.097 18.039 140.118 18.577C139.15 19.1042 137.934 19.6369 136.47 20.1748C136.524 20.4869 136.691 20.7344 136.971 20.9173C137.251 21.0894 137.622 21.1755 138.084 21.1755C138.579 21.1755 139.107 21.1056 139.666 20.9657C140.236 20.8151 140.796 20.6268 141.345 20.4008C141.904 20.1748 142.448 19.9328 142.975 19.6745C143.502 19.4055 143.975 19.1527 144.395 18.9159C144.825 18.6792 145.181 18.4748 145.46 18.3026C145.751 18.1305 145.945 18.0229 146.041 17.9798C146.138 17.9153 146.224 17.8776 146.3 17.8668C146.386 17.8561 146.461 17.8507 146.526 17.8507C146.655 17.8507 146.762 17.883 146.848 17.9475C146.934 18.0013 147.004 18.0713 147.058 18.1574C147.123 18.2327 147.166 18.3188 147.187 18.4156C147.209 18.5017 147.22 18.577 147.22 18.6416C147.22 18.7384 147.209 18.8568 147.187 18.9966C147.166 19.1258 147.085 19.2764 146.945 19.4486C146.891 19.5024 146.708 19.6476 146.396 19.8843C146.095 20.121 145.702 20.4008 145.218 20.7236C144.734 21.0464 144.169 21.3907 143.524 21.7566C142.889 22.1116 142.211 22.4398 141.49 22.7411C140.78 23.0424 140.037 23.2898 139.263 23.4835C138.488 23.688 137.724 23.7902 136.971 23.7902C136.325 23.7902 135.75 23.6664 135.244 23.419C134.749 23.1715 134.324 22.8379 133.969 22.4183C133.624 21.9987 133.361 21.5145 133.178 20.9657C132.995 20.4169 132.904 19.8413 132.904 19.2387C132.904 18.7761 132.995 18.2703 133.178 17.7216C133.361 17.1621 133.624 16.6026 133.969 16.043C134.313 15.4835 134.733 14.9401 135.228 14.4129C135.733 13.8749 136.298 13.4015 136.922 12.9926C137.546 12.5837 138.23 12.2555 138.972 12.0081C139.725 11.7606 140.527 11.6369 141.377 11.6369Z" fill="#222125"/>
<path d="M153.934 13.1379C153.934 13.4714 153.897 13.8426 153.821 14.2515C153.746 14.6496 153.622 15.0262 153.45 15.3813C153.278 15.7364 153.057 16.0323 152.788 16.269C152.519 16.5057 152.186 16.6241 151.788 16.6241C151.573 16.6241 151.433 16.5918 151.368 16.5272C151.314 16.4627 151.287 16.3497 151.287 16.1883C151.287 16.0915 151.287 15.9516 151.287 15.7687C151.298 15.575 151.304 15.3921 151.304 15.2199C151.304 15.0262 151.277 14.8648 151.223 14.7357C151.169 14.5958 151.035 14.5259 150.819 14.5259C150.572 14.5259 150.292 14.6227 149.98 14.8164C149.679 14.9993 149.372 15.2414 149.06 15.5427C148.759 15.844 148.463 16.1883 148.172 16.5757C147.882 16.9523 147.618 17.3396 147.382 17.7377C147.156 18.1251 146.973 18.5017 146.833 18.8675C146.704 19.2334 146.639 19.5454 146.639 19.8036C146.639 20.1802 146.768 20.4761 147.027 20.6913C147.296 20.9065 147.656 21.0141 148.108 21.0141C148.592 21.0141 149.109 20.9334 149.657 20.772C150.206 20.6106 150.749 20.4062 151.287 20.1587C151.836 19.9112 152.363 19.6422 152.869 19.3517C153.375 19.0612 153.832 18.7868 154.241 18.5286C154.661 18.2596 155.01 18.0336 155.29 17.8507C155.57 17.657 155.753 17.5387 155.839 17.4956C156.011 17.4095 156.172 17.3665 156.323 17.3665C156.452 17.3665 156.56 17.3988 156.646 17.4633C156.743 17.5171 156.818 17.5871 156.872 17.6732C156.926 17.7485 156.963 17.8346 156.985 17.9314C157.006 18.0175 157.017 18.0928 157.017 18.1574C157.017 18.2542 157.006 18.3726 156.985 18.5124C156.963 18.6416 156.883 18.7922 156.743 18.9644C156.689 19.0289 156.511 19.1957 156.21 19.4647C155.92 19.7229 155.538 20.0296 155.064 20.3847C154.602 20.7397 154.064 21.1217 153.45 21.5306C152.848 21.9287 152.197 22.2946 151.497 22.6281C150.809 22.9617 150.093 23.236 149.351 23.4512C148.608 23.6772 147.877 23.7902 147.156 23.7902C146.607 23.7902 146.117 23.7041 145.687 23.5319C145.267 23.3598 144.912 23.1284 144.622 22.8379C144.331 22.5367 144.111 22.187 143.96 21.7888C143.809 21.3907 143.734 20.9711 143.734 20.5299C143.734 20.0457 143.847 19.4916 144.073 18.8675C144.299 18.2327 144.611 17.5871 145.009 16.9307C145.407 16.2744 145.875 15.6288 146.413 14.9939C146.951 14.3591 147.532 13.7942 148.156 13.2993C148.791 12.8043 149.448 12.4062 150.125 12.1049C150.814 11.8036 151.508 11.653 152.207 11.653C152.444 11.653 152.665 11.6799 152.869 11.7337C153.084 11.7875 153.267 11.8736 153.418 11.9919C153.579 12.0995 153.703 12.2502 153.789 12.4438C153.886 12.6375 153.934 12.8689 153.934 13.1379Z" fill="#222125"/>
<path d="M159.406 14.4129C159.008 15.1876 158.632 15.9462 158.277 16.6886C157.922 17.4203 157.588 18.0982 157.276 18.7223C157.147 18.9805 157.018 19.2818 156.889 19.6261C156.77 19.9596 156.711 20.2555 156.711 20.5138C156.711 20.6644 156.743 20.7828 156.808 20.8689C156.883 20.9549 157.002 20.998 157.163 20.998C157.389 20.998 157.674 20.9334 158.018 20.8043C158.363 20.6644 158.734 20.4869 159.132 20.2717C159.53 20.0457 159.95 19.7929 160.391 19.5131C160.832 19.2226 161.263 18.9267 161.682 18.6254C162.113 18.3134 162.521 18.0067 162.909 17.7054C163.296 17.3934 163.641 17.1083 163.942 16.85C164.114 16.7317 164.275 16.6725 164.426 16.6725C164.609 16.6725 164.76 16.7532 164.878 16.9146C164.996 17.076 165.055 17.2804 165.055 17.5279C165.055 17.7754 164.996 18.0282 164.878 18.2865C164.76 18.5447 164.544 18.7976 164.232 19.0451C163.533 19.6799 162.823 20.2824 162.102 20.8527C161.392 21.423 160.682 21.9287 159.971 22.3699C159.272 22.8003 158.578 23.1446 157.889 23.4028C157.201 23.6611 156.534 23.7902 155.888 23.7902C155.458 23.7902 155.097 23.731 154.807 23.6126C154.516 23.505 154.279 23.3544 154.096 23.1607C153.924 22.9563 153.801 22.7249 153.725 22.4667C153.65 22.1977 153.612 21.9126 153.612 21.6113C153.612 21.0733 153.704 20.5138 153.887 19.9328C154.07 19.3517 154.274 18.8299 154.5 18.3672C154.823 17.7001 155.14 17.0383 155.452 16.382C155.775 15.7256 156.087 15.0962 156.388 14.4936H155.694C155.092 14.4936 154.677 14.3968 154.452 14.2031C154.226 14.0094 154.113 13.7888 154.113 13.5414C154.113 13.4338 154.145 13.3046 154.209 13.154C154.285 12.9926 154.387 12.8473 154.516 12.7182C154.656 12.5783 154.823 12.46 155.016 12.3631C155.21 12.2663 155.431 12.2179 155.678 12.2179H157.421L160.827 5.45528C161.042 5.0464 161.306 4.75588 161.618 4.58373C161.94 4.40081 162.274 4.30935 162.618 4.30935C162.941 4.30935 163.237 4.39543 163.506 4.56759C163.775 4.73974 163.91 5.02488 163.91 5.423C163.91 5.62744 163.861 5.83726 163.764 6.05245C163.678 6.25689 163.56 6.49899 163.409 6.77875C163.312 6.96167 163.194 7.18225 163.054 7.44048C162.914 7.68796 162.764 7.95696 162.602 8.24748C162.452 8.52724 162.29 8.82313 162.118 9.13517C161.957 9.44721 161.795 9.74849 161.634 10.039C161.268 10.7276 160.881 11.4539 160.472 12.2179H165.733C165.992 12.2179 166.228 12.234 166.443 12.2663C166.659 12.2878 166.842 12.3416 166.992 12.4277C167.154 12.503 167.277 12.6106 167.363 12.7505C167.45 12.8904 167.493 13.0787 167.493 13.3154C167.493 13.4338 167.471 13.5521 167.428 13.6705C167.396 13.7888 167.326 13.8964 167.218 13.9933C167.121 14.0901 166.981 14.1708 166.799 14.2354C166.626 14.2999 166.4 14.343 166.121 14.3645L159.406 14.4129Z" fill="#222125"/>
<path d="M166.347 9.42569C166.347 9.17821 166.39 8.92535 166.476 8.66711C166.573 8.39812 166.713 8.15602 166.896 7.94082C167.079 7.72562 167.305 7.54808 167.574 7.4082C167.854 7.26833 168.182 7.19839 168.558 7.19839C169.183 7.19839 169.618 7.32212 169.866 7.5696C170.113 7.80632 170.237 8.1076 170.237 8.47344C170.237 8.67787 170.194 8.90383 170.108 9.15131C170.033 9.39879 169.914 9.63013 169.753 9.84533C169.591 10.0498 169.382 10.2219 169.123 10.3618C168.865 10.5017 168.558 10.5716 168.203 10.5716C167.536 10.5716 167.068 10.4694 166.799 10.265C166.53 10.0498 166.38 9.77001 166.347 9.42569ZM164.572 13.0572C164.755 12.7559 164.965 12.5407 165.201 12.4116C165.438 12.2824 165.68 12.2179 165.928 12.2179C166.337 12.2179 166.686 12.3524 166.977 12.6214C167.278 12.8796 167.429 13.2132 167.429 13.6221C167.418 13.7189 167.402 13.8157 167.38 13.9126C167.369 14.0094 167.337 14.1063 167.283 14.2031C167.133 14.4829 167.009 14.7196 166.912 14.9132C166.815 15.1069 166.724 15.2898 166.638 15.462C166.562 15.6234 166.487 15.7848 166.412 15.9462C166.337 16.1076 166.245 16.3013 166.137 16.5272C166.008 16.7962 165.863 17.0921 165.702 17.4149C165.54 17.727 165.384 18.0498 165.234 18.3833C165.094 18.7169 164.97 19.0451 164.862 19.3679C164.766 19.6907 164.717 19.9865 164.717 20.2555C164.717 20.5461 164.787 20.7397 164.927 20.8366C165.078 20.9227 165.287 20.9657 165.556 20.9657C165.858 20.9657 166.17 20.9011 166.493 20.772C166.826 20.6429 167.16 20.4761 167.493 20.2717C167.827 20.0672 168.155 19.8359 168.478 19.5777C168.801 19.3087 169.102 19.0397 169.382 18.7707C169.672 18.5017 169.936 18.2434 170.172 17.996C170.42 17.7485 170.624 17.5279 170.786 17.3342C171.001 17.1298 171.216 17.0276 171.431 17.0276C171.625 17.0276 171.781 17.1137 171.899 17.2858C172.029 17.458 172.093 17.6785 172.093 17.9475C172.093 18.195 172.029 18.4586 171.899 18.7384C171.781 19.0182 171.582 19.2818 171.302 19.5293C170.753 20.0888 170.194 20.6268 169.624 21.1432C169.053 21.649 168.467 22.1009 167.864 22.499C167.273 22.8863 166.675 23.1984 166.073 23.4351C165.47 23.6718 164.862 23.7902 164.249 23.7902C163.378 23.7902 162.689 23.5696 162.183 23.1284C161.688 22.6765 161.441 21.9771 161.441 21.0303C161.441 20.5353 161.511 20.0511 161.651 19.5777C161.79 19.1042 161.957 18.6469 162.151 18.2058C162.345 17.7539 162.549 17.3235 162.764 16.9146C162.979 16.495 163.162 16.0968 163.313 15.7202C163.367 15.5804 163.458 15.3652 163.587 15.0746C163.727 14.7841 163.872 14.4882 164.023 14.187C164.195 13.8319 164.378 13.4553 164.572 13.0572Z" fill="#222125"/>
<path d="M175.725 14.4936C175.219 14.4936 174.73 14.6227 174.256 14.881C173.794 15.1284 173.38 15.462 173.014 15.8816C172.659 16.2905 172.373 16.7586 172.158 17.2858C171.943 17.8023 171.835 18.3349 171.835 18.8837C171.835 19.0881 171.852 19.3141 171.884 19.5615C171.916 19.7983 171.981 20.0242 172.078 20.2394C172.185 20.4438 172.336 20.616 172.529 20.7559C172.723 20.8958 172.981 20.9657 173.304 20.9657C173.799 20.9657 174.278 20.8366 174.741 20.5783C175.214 20.3093 175.634 19.965 176 19.5454C176.365 19.115 176.656 18.6308 176.871 18.0928C177.086 17.5548 177.194 17.0114 177.194 16.4627C177.194 16.2475 177.178 16.0269 177.145 15.8009C177.124 15.5642 177.059 15.349 176.952 15.1553C176.855 14.9617 176.71 14.8056 176.516 14.6873C176.322 14.5582 176.059 14.4936 175.725 14.4936ZM176.564 11.653C176.973 11.653 177.409 11.7068 177.872 11.8144C178.345 11.922 178.781 12.1049 179.179 12.3631C179.577 12.6214 179.905 12.9657 180.164 13.3961C180.433 13.8157 180.567 14.3376 180.567 14.9617C180.567 15.2845 180.524 15.6557 180.438 16.0753C180.352 16.4842 180.223 16.9146 180.051 17.3665C180.158 17.4956 180.282 17.5871 180.422 17.6409C180.562 17.6947 180.712 17.7216 180.874 17.7216C181.1 17.7216 181.347 17.657 181.616 17.5279C181.896 17.3988 182.181 17.232 182.472 17.0276C182.762 16.8231 183.053 16.5918 183.343 16.3336C183.634 16.0753 183.908 15.8171 184.166 15.5588C184.425 15.3006 184.656 15.0585 184.86 14.8325C185.076 14.5958 185.253 14.3968 185.393 14.2354C185.468 14.1601 185.56 14.1224 185.667 14.1224C185.818 14.1224 185.952 14.2031 186.071 14.3645C186.189 14.5151 186.248 14.7303 186.248 15.0101C186.248 15.2898 186.162 15.6126 185.99 15.9785C185.829 16.3443 185.522 16.7263 185.07 17.1244C184.812 17.4042 184.516 17.727 184.182 18.0928C183.849 18.4586 183.494 18.803 183.117 19.1258C182.741 19.4486 182.348 19.7229 181.939 19.9489C181.53 20.1748 181.121 20.2878 180.712 20.2878C180.433 20.2878 180.158 20.2448 179.889 20.1587C179.631 20.0726 179.367 19.9328 179.098 19.7391C178.711 20.3416 178.27 20.8904 177.775 21.3853C177.28 21.8803 176.726 22.3053 176.113 22.6604C175.51 23.0155 174.854 23.2898 174.143 23.4835C173.444 23.688 172.696 23.7902 171.9 23.7902C171.599 23.7902 171.249 23.731 170.851 23.6126C170.453 23.4943 170.071 23.3006 169.705 23.0316C169.35 22.7518 169.049 22.3914 168.801 21.9502C168.554 21.5091 168.43 20.9711 168.43 20.3362C168.43 19.9059 168.5 19.3894 168.64 18.7868C168.78 18.1843 168.989 17.5656 169.269 16.9307C169.56 16.2851 169.92 15.6503 170.351 15.0262C170.792 14.3914 171.314 13.8265 171.916 13.3315C172.519 12.8258 173.207 12.4223 173.982 12.121C174.757 11.809 175.618 11.653 176.564 11.653Z" fill="#222125"/>
<path d="M185.152 13.5898C185.367 13.1271 185.636 12.7828 185.958 12.5568C186.281 12.3309 186.599 12.2179 186.911 12.2179C187.169 12.2179 187.4 12.3147 187.605 12.5084C187.809 12.6913 187.911 12.9657 187.911 13.3315C187.911 13.4714 187.895 13.6221 187.863 13.7835C187.831 13.9449 187.772 14.117 187.685 14.2999C187.922 13.9987 188.261 13.692 188.702 13.38C189.143 13.0572 189.628 12.772 190.155 12.5245C190.693 12.2663 191.242 12.0565 191.801 11.8951C192.371 11.7337 192.909 11.653 193.415 11.653C193.985 11.653 194.459 11.7929 194.835 12.0726C195.223 12.3416 195.416 12.8043 195.416 13.4607C195.416 13.848 195.357 14.2515 195.239 14.6711C195.121 15.0908 194.965 15.5104 194.771 15.9301C194.588 16.3497 194.378 16.764 194.141 17.1728C193.915 17.5709 193.689 17.9475 193.464 18.3026C193.238 18.6577 193.028 18.9859 192.834 19.2872C192.651 19.5777 192.506 19.8198 192.398 20.0134C192.258 20.1856 192.188 20.3847 192.188 20.6106C192.188 20.6967 192.215 20.772 192.269 20.8366C192.323 20.9011 192.409 20.9334 192.527 20.9334C192.603 20.9334 192.689 20.928 192.786 20.9173C192.883 20.8958 193.001 20.8366 193.141 20.7397C193.722 20.5245 194.314 20.2555 194.916 19.9328C195.529 19.61 196.116 19.271 196.675 18.9159C197.235 18.5501 197.746 18.1896 198.209 17.8346C198.682 17.4687 199.075 17.1406 199.387 16.85C199.473 16.7747 199.559 16.7209 199.645 16.6886C199.731 16.6564 199.812 16.6402 199.887 16.6402C200.07 16.6402 200.21 16.7102 200.307 16.85C200.414 16.9899 200.468 17.1675 200.468 17.3826C200.468 17.7162 200.361 18.0874 200.145 18.4963C199.941 18.9052 199.613 19.2872 199.161 19.6422C198.548 20.0834 197.983 20.4869 197.466 20.8527C196.961 21.2186 196.439 21.5629 195.901 21.8857C195.373 22.1977 194.803 22.4936 194.19 22.7734C193.587 23.0424 192.877 23.2952 192.059 23.5319C191.78 23.618 191.521 23.6826 191.285 23.7256C191.059 23.7687 190.849 23.7902 190.655 23.7902C190.085 23.7902 189.665 23.6342 189.396 23.3221C189.138 22.9993 189.009 22.5528 189.009 21.9825C189.009 21.9072 189.009 21.8373 189.009 21.7727C189.02 21.6974 189.03 21.6167 189.041 21.5306C189.063 21.197 189.149 20.8312 189.299 20.4331C189.461 20.035 189.649 19.6261 189.864 19.2065C190.09 18.7868 190.327 18.3726 190.574 17.9637C190.822 17.544 191.048 17.1513 191.252 16.7855C191.468 16.4089 191.645 16.0753 191.785 15.7848C191.925 15.4943 191.995 15.2576 191.995 15.0746C191.995 14.9132 191.946 14.7787 191.85 14.6711C191.763 14.5528 191.629 14.4936 191.446 14.4936C190.757 14.4936 190.101 14.698 189.477 15.1069C188.864 15.5158 188.288 16.0215 187.75 16.6241C187.212 17.2159 186.717 17.8453 186.265 18.5124C185.813 19.1796 185.415 19.7767 185.071 20.304C184.856 20.659 184.657 21.041 184.474 21.4499C184.301 21.848 184.119 22.2246 183.925 22.5797C183.731 22.924 183.511 23.2091 183.263 23.4351C183.026 23.6718 182.725 23.7902 182.359 23.7902C181.983 23.7902 181.687 23.6718 181.472 23.4351C181.256 23.1984 181.149 22.9079 181.149 22.5636C181.149 22.3806 181.224 22.0847 181.375 21.6759C181.525 21.267 181.719 20.7935 181.956 20.2555C182.193 19.7176 182.456 19.1419 182.747 18.5286C183.048 17.9045 183.344 17.2912 183.634 16.6886C183.936 16.0753 184.221 15.4997 184.49 14.9617C184.759 14.4237 184.979 13.9664 185.152 13.5898Z" fill="#222125"/>
</svg>
