<svg width="120" height="120" viewBox="0 0 120 120" fill="none" xmlns="http://www.w3.org/2000/svg">
<path d="M34.5174 54.6817C34.5174 54.6817 28.936 55.8777 20.1653 55.4791C11.3945 55.0804 5.81312 59.8645 6.2118 64.6485C6.61047 69.4326 13.7865 75.8113 19.3679 75.8113C24.9493 75.8113 24.152 71.5495 34.5174 72.0877C34.5174 72.0877 30.9294 82.9874 40.0988 84.1834C49.2683 85.3794 54.0523 78.2033 59.6337 78.2033H65.6138C65.6138 78.2033 63.2218 82.5887 69.2018 82.19C69.2018 82.19 68.0058 91.4312 77.1752 88.206C79.118 87.1271 80.8022 85.6376 82.1104 83.8412C83.4186 82.0448 84.3194 79.9848 84.75 77.8047C84.75 77.8047 100.697 74.6153 113.454 59.8645C113.454 59.8645 114.252 58.6684 113.454 58.4651C112.931 58.3439 112.397 58.2785 111.86 58.2698C111.86 58.2698 113.056 58.2698 113.056 57.4724C113.056 56.6751 108.272 46.3096 81.9593 39.1336C80.531 36.8789 78.5999 34.9856 76.3173 33.6023C74.0348 32.2189 71.4628 31.383 68.8032 31.1601C59.6337 30.3628 61.2284 39.1336 61.2284 39.1336C61.2284 39.1336 53.6537 41.5256 52.8563 42.3229C52.8563 42.3229 39.3015 35.9442 32.1254 43.1203C26.7115 48.5382 34.5174 54.6817 34.5174 54.6817Z" fill="#F5F2F0"/>
<ellipse cx="94.8838" cy="55.4154" rx="3.18937" ry="3.18937" fill="#252121"/>
<path fill-rule="evenodd" clip-rule="evenodd" d="M114.01 58.1154C114.059 58.3299 113.926 58.5442 113.712 58.5942C109.427 59.5924 106.69 60.8809 104.667 61.8336C104.431 61.9448 104.204 62.0515 103.986 62.1526C102.95 62.6326 102.061 63.0087 101.215 63.1223C100.341 63.2397 99.5313 63.0757 98.6591 62.5307C98.4724 62.414 98.4157 62.168 98.5324 61.9813C98.6491 61.7946 98.895 61.7378 99.0817 61.8545C99.8043 62.3061 100.428 62.4235 101.109 62.3321C101.819 62.2367 102.605 61.9137 103.651 61.4292C103.867 61.329 104.093 61.2228 104.328 61.1117C106.358 60.1559 109.162 58.8355 113.531 57.8176C113.745 57.7677 113.96 57.901 114.01 58.1154Z" fill="#252121"/>
</svg>
