<svg width="120" height="120" viewBox="0 0 120 120" fill="none" xmlns="http://www.w3.org/2000/svg">
<path d="M89.3848 68.3746C91.8267 78.8764 81.8585 85.563 73.2715 87.4459C63.7606 89.5314 52.9489 89.3893 44.9257 86.3733C34.2906 82.3754 28.8126 73.4387 28.9192 59.2737C29.0759 38.463 43.2734 21.6533 59.3211 27.6856C74.4345 33.3667 69.0063 44.2952 73.8851 49.5577C79.3396 55.4414 86.5497 56.1813 89.3848 68.3746Z" fill="#F5F2F0"/>
<path d="M45.7431 59.5128C41.2698 60.5163 39.7689 56.4516 39.5776 54.2938C39.1719 53.1266 39.5308 50.19 44.2118 47.7807C50.063 44.769 51.9507 48.7799 52.0224 49.9671C52.0941 51.1544 51.3349 58.2584 45.7431 59.5128Z" fill="#252121"/>
</svg>
